<svg id="Layer_1" data-name="Layer 1" xmlns="http://www.w3.org/2000/svg" viewBox="0 0 612 248.89"><defs><style>.cls-1{fill:#3c4344;}.cls-2{fill:#4285f4;}</style></defs><path id="M" class="cls-1" d="M174.28,244.7q0-4.63-5-7.85A23.08,23.08,0,0,0,157,233.64a22.17,22.17,0,0,0-12.23,3.21q-5,3.21-5,7.85V465.86H114.23V244.7q0-11.41,12.51-19.44t30.3-8q17.24,0,30,7.85,12.51-7.85,30-7.85t30,8q12.79,8,12.79,19.44V465.86H234.33V244.7q0-4.63-5.29-7.85a21.64,21.64,0,0,0-11.95-3.21,22.17,22.17,0,0,0-12.23,3.21q-5,3.21-5,7.85V465.86H174.28Z" transform="translate(0 -217.06)"/><path id="L" class="cls-1" d="M380.49,219.2h0c14.12,0,25.58,9.33,25.58,20.85V449.63h59.77v16.23H380.49Z" transform="translate(0 -217.06)"/><path id="I" class="cls-1" d="M520,466H494.44V219.11h0c14.12,0,25.57,9.33,25.57,20.85Z" transform="translate(0 -217.06)"/><path id="E" class="cls-1" d="M327.81,334.32h21.3v16.41H328.06c-7.72,0-14,5.11-14,11.4v87.41h37.81V466H288.5V219.11h25.58v16.41h0v87.61C314.08,329.31,320.22,334.32,327.81,334.32Z" transform="translate(0 -217.06)"/><path class="cls-2" d="M320.2,219.29v15.2h31.69S346.5,222,320.2,219.29Z" transform="translate(0 -217.06)"/><path id="A" class="cls-1" d="M0,244.34q0-11.24,12.51-19.26t30.3-8q17.52,0,30.31,8,12.51,8,12.51,19.26V465.86H60.05V350.64H25.58V428.5H0Zm25.58,89.89H60.05V244.34q0-4.46-5-7.66a22.2,22.2,0,0,0-12.24-3.39,21.3,21.3,0,0,0-12.23,3.39q-5,3.21-5,7.66Z" transform="translate(0 -217.06)"/><path class="cls-2" d="M0,434.35H25.58v31.51S4.5,460.49,0,434.35Z" transform="translate(0 -217.06)"/><path id="E-2" data-name="E" class="cls-1" d="M588.07,333.25h21.15v16.41H588c-7.65,0-13.85,5.06-13.85,11.3v87.51h0v16.41H548.61V218h43.53c11,0,19.86,7.25,19.86,16.19v.22H574.19v87.49C574.19,328.19,580.4,333.25,588.07,333.25Z" transform="translate(0 -217.06)"/><path class="cls-2" d="M580.31,464.88V449.67H612S606.61,462.2,580.31,464.88Z" transform="translate(0 -217.06)"/></svg>